<svg width="190" height="39" viewBox="0 0 190 39" fill="none" xmlns="http://www.w3.org/2000/svg">
<path d="M41.46 15.28C39.98 15.28 38.6467 14.9667 37.46 14.34C36.2867 13.7133 35.36 12.8467 34.68 11.74C34.0133 10.6333 33.68 9.38667 33.68 8C33.68 6.61334 34.0133 5.36667 34.68 4.26C35.36 3.15334 36.2867 2.28667 37.46 1.66C38.6467 1.03333 39.98 0.720001 41.46 0.720001C42.94 0.720001 44.2667 1.03333 45.44 1.66C46.6267 2.28667 47.5533 3.15334 48.22 4.26C48.9 5.36667 49.24 6.61334 49.24 8C49.24 9.38667 48.9 10.6333 48.22 11.74C47.5533 12.8467 46.6267 13.7133 45.44 14.34C44.2667 14.9667 42.94 15.28 41.46 15.28ZM41.46 12C42.1667 12 42.8067 11.8333 43.38 11.5C43.9533 11.1667 44.4067 10.7 44.74 10.1C45.0733 9.48667 45.24 8.78667 45.24 8C45.24 7.21334 45.0733 6.52 44.74 5.92C44.4067 5.30667 43.9533 4.83334 43.38 4.5C42.8067 4.16667 42.1667 4 41.46 4C40.7533 4 40.1133 4.16667 39.54 4.5C38.9667 4.83334 38.5133 5.30667 38.18 5.92C37.8467 6.52 37.68 7.21334 37.68 8C37.68 8.78667 37.8467 9.48667 38.18 10.1C38.5133 10.7 38.9667 11.1667 39.54 11.5C40.1133 11.8333 40.7533 12 41.46 12Z" fill="#437CC9"/>
<path d="M59.2341 11.28H57.0741V15H53.1141V1H59.5141C60.7807 1 61.8807 1.21333 62.8141 1.64C63.7474 2.05333 64.4674 2.65334 64.9741 3.44C65.4807 4.21333 65.7341 5.12667 65.7341 6.18C65.7341 7.19334 65.4941 8.08 65.0141 8.84C64.5474 9.58667 63.8741 10.1733 62.9941 10.6L66.0141 15H61.7741L59.2341 11.28ZM61.7341 6.18C61.7341 5.52667 61.5274 5.02 61.1141 4.66C60.7007 4.3 60.0874 4.12 59.2741 4.12H57.0741V8.22H59.2741C60.0874 8.22 60.7007 8.04667 61.1141 7.7C61.5274 7.34 61.7341 6.83333 61.7341 6.18Z" fill="#437CC9"/>
<path d="M79.0988 12.28H73.1787L72.0788 15H68.0387L74.2188 1H78.1187L84.3187 15H80.1987L79.0988 12.28ZM77.9388 9.36L76.1387 4.88L74.3387 9.36H77.9388Z" fill="#437CC9"/>
<path d="M99.8814 15L99.8414 7.58L96.2414 13.62H94.4814L90.9014 7.78V15H87.2414V1H90.5014L95.4214 9.08L100.221 1H103.481L103.521 15H99.8814Z" fill="#437CC9"/>
<path d="M108.123 1H112.083V15H108.123V1Z" fill="#437CC9"/>
<path d="M121.621 15.28C120.487 15.28 119.387 15.14 118.321 14.86C117.254 14.58 116.387 14.2067 115.721 13.74L117.021 10.82C117.647 11.2333 118.374 11.5667 119.201 11.82C120.027 12.0733 120.841 12.2 121.641 12.2C123.161 12.2 123.921 11.82 123.921 11.06C123.921 10.66 123.701 10.3667 123.261 10.18C122.834 9.98 122.141 9.77333 121.181 9.56C120.127 9.33333 119.247 9.09334 118.541 8.84C117.834 8.57334 117.227 8.15334 116.721 7.58C116.214 7.00667 115.961 6.23333 115.961 5.26C115.961 4.40667 116.194 3.64 116.661 2.96C117.127 2.26667 117.821 1.72 118.741 1.32C119.674 0.920001 120.814 0.720001 122.161 0.720001C123.081 0.720001 123.987 0.826668 124.881 1.04C125.774 1.24 126.561 1.54 127.241 1.94L126.021 4.88C124.687 4.16 123.394 3.8 122.141 3.8C121.354 3.8 120.781 3.92 120.421 4.16C120.061 4.38667 119.881 4.68667 119.881 5.06C119.881 5.43334 120.094 5.71334 120.521 5.9C120.947 6.08667 121.634 6.28 122.581 6.48C123.647 6.70667 124.527 6.95334 125.221 7.22C125.927 7.47334 126.534 7.88667 127.041 8.46C127.561 9.02 127.821 9.78667 127.821 10.76C127.821 11.6 127.587 12.36 127.121 13.04C126.654 13.72 125.954 14.2667 125.021 14.68C124.087 15.08 122.954 15.28 121.621 15.28Z" fill="#437CC9"/>
<path d="M144.09 15L144.05 7.58L140.45 13.62H138.69L135.11 7.78V15H131.45V1H134.71L139.63 9.08L144.43 1H147.69L147.73 15H144.09Z" fill="#437CC9"/>
<path d="M159.392 15.28C157.912 15.28 156.579 14.9667 155.392 14.34C154.219 13.7133 153.292 12.8467 152.612 11.74C151.945 10.6333 151.612 9.38667 151.612 8C151.612 6.61334 151.945 5.36667 152.612 4.26C153.292 3.15334 154.219 2.28667 155.392 1.66C156.579 1.03333 157.912 0.720001 159.392 0.720001C160.872 0.720001 162.199 1.03333 163.372 1.66C164.559 2.28667 165.485 3.15334 166.152 4.26C166.832 5.36667 167.172 6.61334 167.172 8C167.172 9.38667 166.832 10.6333 166.152 11.74C165.485 12.8467 164.559 13.7133 163.372 14.34C162.199 14.9667 160.872 15.28 159.392 15.28ZM159.392 12C160.099 12 160.739 11.8333 161.312 11.5C161.885 11.1667 162.339 10.7 162.672 10.1C163.005 9.48667 163.172 8.78667 163.172 8C163.172 7.21334 163.005 6.52 162.672 5.92C162.339 5.30667 161.885 4.83334 161.312 4.5C160.739 4.16667 160.099 4 159.392 4C158.685 4 158.045 4.16667 157.472 4.5C156.899 4.83334 156.445 5.30667 156.112 5.92C155.779 6.52 155.612 7.21334 155.612 8C155.612 8.78667 155.779 9.48667 156.112 10.1C156.445 10.7 156.899 11.1667 157.472 11.5C158.045 11.8333 158.685 12 159.392 12Z" fill="#437CC9"/>
<path d="M7.844 36L7.832 30.432L5.072 35.04H4.376L1.616 30.504V36H0.127998V27.6H1.412L4.748 33.168L8.024 27.6H9.308L9.32 36H7.844Z" fill="#555555"/>
<path d="M17.6489 29.592V36H16.2209V35.184C15.9809 35.472 15.6809 35.696 15.3209 35.856C14.9609 36.008 14.5729 36.084 14.1569 36.084C13.3009 36.084 12.6249 35.848 12.1289 35.376C11.6409 34.896 11.3969 34.188 11.3969 33.252V29.592H12.8969V33.048C12.8969 33.624 13.0249 34.056 13.2809 34.344C13.5449 34.624 13.9169 34.764 14.3969 34.764C14.9329 34.764 15.3569 34.6 15.6689 34.272C15.9889 33.936 16.1489 33.456 16.1489 32.832V29.592H17.6489Z" fill="#555555"/>
<path d="M19.6129 27.096H21.1129V36H19.6129V27.096Z" fill="#555555"/>
<path d="M27.2501 35.652C27.0741 35.796 26.8581 35.904 26.6021 35.976C26.3541 36.048 26.0901 36.084 25.8101 36.084C25.1061 36.084 24.5621 35.9 24.1781 35.532C23.7941 35.164 23.6021 34.628 23.6021 33.924V30.84H22.5461V29.64H23.6021V28.176H25.1021V29.64H26.8181V30.84H25.1021V33.888C25.1021 34.2 25.1781 34.44 25.3301 34.608C25.4821 34.768 25.7021 34.848 25.9901 34.848C26.3261 34.848 26.6061 34.76 26.8301 34.584L27.2501 35.652Z" fill="#555555"/>
<path d="M28.484 29.592H29.984V36H28.484V29.592ZM29.24 28.536C28.968 28.536 28.74 28.452 28.556 28.284C28.372 28.108 28.28 27.892 28.28 27.636C28.28 27.38 28.372 27.168 28.556 27C28.74 26.824 28.968 26.736 29.24 26.736C29.512 26.736 29.74 26.82 29.924 26.988C30.108 27.148 30.2 27.352 30.2 27.6C30.2 27.864 30.108 28.088 29.924 28.272C29.748 28.448 29.52 28.536 29.24 28.536Z" fill="#555555"/>
<path d="M41.7132 34.692V36H35.4132V27.6H41.5452V28.908H36.9732V31.092H41.0292V32.376H36.9732V34.692H41.7132Z" fill="#555555"/>
<path d="M43.3082 27.096H44.8082V36H43.3082V27.096Z" fill="#555555"/>
<path d="M52.801 32.832C52.801 32.936 52.793 33.084 52.777 33.276H47.749C47.837 33.748 48.065 34.124 48.433 34.404C48.809 34.676 49.273 34.812 49.825 34.812C50.529 34.812 51.109 34.58 51.565 34.116L52.369 35.04C52.081 35.384 51.717 35.644 51.277 35.82C50.837 35.996 50.341 36.084 49.789 36.084C49.085 36.084 48.465 35.944 47.929 35.664C47.393 35.384 46.977 34.996 46.681 34.5C46.393 33.996 46.249 33.428 46.249 32.796C46.249 32.172 46.389 31.612 46.669 31.116C46.957 30.612 47.353 30.22 47.857 29.94C48.361 29.66 48.929 29.52 49.561 29.52C50.185 29.52 50.741 29.66 51.229 29.94C51.725 30.212 52.109 30.6 52.381 31.104C52.661 31.6 52.801 32.176 52.801 32.832ZM49.561 30.72C49.081 30.72 48.673 30.864 48.337 31.152C48.009 31.432 47.809 31.808 47.737 32.28H51.373C51.309 31.816 51.113 31.44 50.785 31.152C50.457 30.864 50.049 30.72 49.561 30.72Z" fill="#555555"/>
<path d="M57.1818 36.084C56.5178 36.084 55.9218 35.944 55.3938 35.664C54.8658 35.384 54.4538 34.996 54.1578 34.5C53.8618 33.996 53.7138 33.428 53.7138 32.796C53.7138 32.164 53.8618 31.6 54.1578 31.104C54.4538 30.608 54.8618 30.22 55.3818 29.94C55.9098 29.66 56.5098 29.52 57.1818 29.52C57.8138 29.52 58.3658 29.648 58.8378 29.904C59.3178 30.16 59.6778 30.528 59.9178 31.008L58.7658 31.68C58.5818 31.384 58.3498 31.164 58.0698 31.02C57.7978 30.868 57.4978 30.792 57.1698 30.792C56.6098 30.792 56.1458 30.976 55.7778 31.344C55.4098 31.704 55.2258 32.188 55.2258 32.796C55.2258 33.404 55.4058 33.892 55.7658 34.26C56.1338 34.62 56.6018 34.8 57.1698 34.8C57.4978 34.8 57.7978 34.728 58.0698 34.584C58.3498 34.432 58.5818 34.208 58.7658 33.912L59.9178 34.584C59.6698 35.064 59.3058 35.436 58.8258 35.7C58.3538 35.956 57.8058 36.084 57.1818 36.084Z" fill="#555555"/>
<path d="M65.1485 35.652C64.9725 35.796 64.7565 35.904 64.5005 35.976C64.2525 36.048 63.9885 36.084 63.7085 36.084C63.0045 36.084 62.4605 35.9 62.0765 35.532C61.6925 35.164 61.5005 34.628 61.5005 33.924V30.84H60.4445V29.64H61.5005V28.176H63.0005V29.64H64.7165V30.84H63.0005V33.888C63.0005 34.2 63.0765 34.44 63.2285 34.608C63.3805 34.768 63.6005 34.848 63.8885 34.848C64.2245 34.848 64.5045 34.76 64.7285 34.584L65.1485 35.652Z" fill="#555555"/>
<path d="M69.0515 36.084C68.4035 36.084 67.8195 35.944 67.2995 35.664C66.7795 35.384 66.3715 34.996 66.0755 34.5C65.7875 33.996 65.6435 33.428 65.6435 32.796C65.6435 32.164 65.7875 31.6 66.0755 31.104C66.3715 30.608 66.7795 30.22 67.2995 29.94C67.8195 29.66 68.4035 29.52 69.0515 29.52C69.7075 29.52 70.2955 29.66 70.8155 29.94C71.3355 30.22 71.7395 30.608 72.0275 31.104C72.3235 31.6 72.4715 32.164 72.4715 32.796C72.4715 33.428 72.3235 33.996 72.0275 34.5C71.7395 34.996 71.3355 35.384 70.8155 35.664C70.2955 35.944 69.7075 36.084 69.0515 36.084ZM69.0515 34.8C69.6035 34.8 70.0595 34.616 70.4195 34.248C70.7795 33.88 70.9595 33.396 70.9595 32.796C70.9595 32.196 70.7795 31.712 70.4195 31.344C70.0595 30.976 69.6035 30.792 69.0515 30.792C68.4995 30.792 68.0435 30.976 67.6835 31.344C67.3315 31.712 67.1555 32.196 67.1555 32.796C67.1555 33.396 67.3315 33.88 67.6835 34.248C68.0435 34.616 68.4995 34.8 69.0515 34.8Z" fill="#555555"/>
<path d="M75.3339 30.528C75.7659 29.856 76.5259 29.52 77.6139 29.52V30.948C77.4859 30.924 77.3699 30.912 77.2659 30.912C76.6819 30.912 76.2259 31.084 75.8979 31.428C75.5699 31.764 75.4059 32.252 75.4059 32.892V36H73.9059V29.592H75.3339V30.528Z" fill="#555555"/>
<path d="M81.2992 29.52C82.2432 29.52 82.9632 29.748 83.4592 30.204C83.9632 30.652 84.2152 31.332 84.2152 32.244V36H82.7992V35.22C82.6152 35.5 82.3512 35.716 82.0072 35.868C81.6712 36.012 81.2632 36.084 80.7832 36.084C80.3032 36.084 79.8832 36.004 79.5232 35.844C79.1632 35.676 78.8832 35.448 78.6832 35.16C78.4912 34.864 78.3952 34.532 78.3952 34.164C78.3952 33.588 78.6072 33.128 79.0312 32.784C79.4632 32.432 80.1392 32.256 81.0592 32.256H82.7152V32.16C82.7152 31.712 82.5792 31.368 82.3072 31.128C82.0432 30.888 81.6472 30.768 81.1192 30.768C80.7592 30.768 80.4032 30.824 80.0512 30.936C79.7072 31.048 79.4152 31.204 79.1752 31.404L78.5872 30.312C78.9232 30.056 79.3272 29.86 79.7992 29.724C80.2712 29.588 80.7712 29.52 81.2992 29.52ZM81.0952 34.992C81.4712 34.992 81.8032 34.908 82.0912 34.74C82.3872 34.564 82.5952 34.316 82.7152 33.996V33.252H81.1672C80.3032 33.252 79.8712 33.536 79.8712 34.104C79.8712 34.376 79.9792 34.592 80.1952 34.752C80.4112 34.912 80.7112 34.992 81.0952 34.992Z" fill="#555555"/>
<path d="M86.1403 27.096H87.6403V36H86.1403V27.096Z" fill="#555555"/>
<path d="M96.5254 27.6C97.2534 27.6 97.8854 27.72 98.4214 27.96C98.9654 28.2 99.3814 28.544 99.6694 28.992C99.9574 29.44 100.101 29.972 100.101 30.588C100.101 31.196 99.9574 31.728 99.6694 32.184C99.3814 32.632 98.9654 32.976 98.4214 33.216C97.8854 33.456 97.2534 33.576 96.5254 33.576H94.6294V36H93.0694V27.6H96.5254ZM96.4534 32.256C97.1334 32.256 97.6494 32.112 98.0014 31.824C98.3534 31.536 98.5294 31.124 98.5294 30.588C98.5294 30.052 98.3534 29.64 98.0014 29.352C97.6494 29.064 97.1334 28.92 96.4534 28.92H94.6294V32.256H96.4534Z" fill="#555555"/>
<path d="M107.516 32.832C107.516 32.936 107.508 33.084 107.492 33.276H102.464C102.552 33.748 102.78 34.124 103.148 34.404C103.524 34.676 103.988 34.812 104.54 34.812C105.244 34.812 105.824 34.58 106.28 34.116L107.084 35.04C106.796 35.384 106.432 35.644 105.992 35.82C105.552 35.996 105.056 36.084 104.504 36.084C103.8 36.084 103.18 35.944 102.644 35.664C102.108 35.384 101.692 34.996 101.396 34.5C101.108 33.996 100.964 33.428 100.964 32.796C100.964 32.172 101.104 31.612 101.384 31.116C101.672 30.612 102.068 30.22 102.572 29.94C103.076 29.66 103.644 29.52 104.276 29.52C104.9 29.52 105.456 29.66 105.944 29.94C106.44 30.212 106.824 30.6 107.096 31.104C107.376 31.6 107.516 32.176 107.516 32.832ZM104.276 30.72C103.796 30.72 103.388 30.864 103.052 31.152C102.724 31.432 102.524 31.808 102.452 32.28H106.088C106.024 31.816 105.828 31.44 105.5 31.152C105.172 30.864 104.764 30.72 104.276 30.72Z" fill="#555555"/>
<path d="M111.837 36.084C111.189 36.084 110.605 35.944 110.085 35.664C109.565 35.384 109.157 34.996 108.861 34.5C108.573 33.996 108.429 33.428 108.429 32.796C108.429 32.164 108.573 31.6 108.861 31.104C109.157 30.608 109.565 30.22 110.085 29.94C110.605 29.66 111.189 29.52 111.837 29.52C112.493 29.52 113.081 29.66 113.601 29.94C114.121 30.22 114.525 30.608 114.813 31.104C115.109 31.6 115.257 32.164 115.257 32.796C115.257 33.428 115.109 33.996 114.813 34.5C114.525 34.996 114.121 35.384 113.601 35.664C113.081 35.944 112.493 36.084 111.837 36.084ZM111.837 34.8C112.389 34.8 112.845 34.616 113.205 34.248C113.565 33.88 113.745 33.396 113.745 32.796C113.745 32.196 113.565 31.712 113.205 31.344C112.845 30.976 112.389 30.792 111.837 30.792C111.285 30.792 110.829 30.976 110.469 31.344C110.117 31.712 109.941 32.196 109.941 32.796C109.941 33.396 110.117 33.88 110.469 34.248C110.829 34.616 111.285 34.8 111.837 34.8Z" fill="#555555"/>
<path d="M120.243 29.52C120.867 29.52 121.423 29.656 121.911 29.928C122.407 30.2 122.795 30.584 123.075 31.08C123.355 31.576 123.495 32.148 123.495 32.796C123.495 33.444 123.355 34.02 123.075 34.524C122.795 35.02 122.407 35.404 121.911 35.676C121.423 35.948 120.867 36.084 120.243 36.084C119.379 36.084 118.695 35.796 118.191 35.22V38.328H116.691V29.592H118.119V30.432C118.367 30.128 118.671 29.9 119.031 29.748C119.399 29.596 119.803 29.52 120.243 29.52ZM120.075 34.8C120.627 34.8 121.079 34.616 121.431 34.248C121.791 33.88 121.971 33.396 121.971 32.796C121.971 32.196 121.791 31.712 121.431 31.344C121.079 30.976 120.627 30.792 120.075 30.792C119.715 30.792 119.391 30.876 119.103 31.044C118.815 31.204 118.587 31.436 118.419 31.74C118.251 32.044 118.167 32.396 118.167 32.796C118.167 33.196 118.251 33.548 118.419 33.852C118.587 34.156 118.815 34.392 119.103 34.56C119.391 34.72 119.715 34.8 120.075 34.8Z" fill="#555555"/>
<path d="M124.918 27.096H126.418V36H124.918V27.096Z" fill="#555555"/>
<path d="M134.41 32.832C134.41 32.936 134.402 33.084 134.386 33.276H129.358C129.446 33.748 129.674 34.124 130.042 34.404C130.418 34.676 130.882 34.812 131.434 34.812C132.138 34.812 132.718 34.58 133.174 34.116L133.978 35.04C133.69 35.384 133.326 35.644 132.886 35.82C132.446 35.996 131.95 36.084 131.398 36.084C130.694 36.084 130.074 35.944 129.538 35.664C129.002 35.384 128.586 34.996 128.29 34.5C128.002 33.996 127.858 33.428 127.858 32.796C127.858 32.172 127.998 31.612 128.278 31.116C128.566 30.612 128.962 30.22 129.466 29.94C129.97 29.66 130.538 29.52 131.17 29.52C131.794 29.52 132.35 29.66 132.838 29.94C133.334 30.212 133.718 30.6 133.99 31.104C134.27 31.6 134.41 32.176 134.41 32.832ZM131.17 30.72C130.69 30.72 130.282 30.864 129.946 31.152C129.618 31.432 129.418 31.808 129.346 32.28H132.982C132.918 31.816 132.722 31.44 132.394 31.152C132.066 30.864 131.658 30.72 131.17 30.72Z" fill="#555555"/>
<path d="M136.343 27.012C136.623 27.012 136.855 27.104 137.039 27.288C137.223 27.472 137.315 27.708 137.315 27.996C137.315 28.14 137.295 28.28 137.255 28.416C137.223 28.552 137.155 28.756 137.051 29.028L136.427 30.732H135.455L135.935 28.884C135.759 28.82 135.619 28.712 135.515 28.56C135.419 28.4 135.371 28.212 135.371 27.996C135.371 27.708 135.463 27.472 135.647 27.288C135.831 27.104 136.063 27.012 136.343 27.012Z" fill="#555555"/>
<path d="M140.562 36.084C140.042 36.084 139.534 36.016 139.038 35.88C138.542 35.744 138.146 35.572 137.85 35.364L138.426 34.224C138.714 34.416 139.058 34.572 139.458 34.692C139.866 34.804 140.266 34.86 140.658 34.86C141.554 34.86 142.002 34.624 142.002 34.152C142.002 33.928 141.886 33.772 141.654 33.684C141.43 33.596 141.066 33.512 140.562 33.432C140.034 33.352 139.602 33.26 139.266 33.156C138.938 33.052 138.65 32.872 138.402 32.616C138.162 32.352 138.042 31.988 138.042 31.524C138.042 30.916 138.294 30.432 138.798 30.072C139.31 29.704 139.998 29.52 140.862 29.52C141.302 29.52 141.742 29.572 142.182 29.676C142.622 29.772 142.982 29.904 143.262 30.072L142.686 31.212C142.142 30.892 141.53 30.732 140.85 30.732C140.41 30.732 140.074 30.8 139.842 30.936C139.618 31.064 139.506 31.236 139.506 31.452C139.506 31.692 139.626 31.864 139.866 31.968C140.114 32.064 140.494 32.156 141.006 32.244C141.518 32.324 141.938 32.416 142.266 32.52C142.594 32.624 142.874 32.8 143.106 33.048C143.346 33.296 143.466 33.648 143.466 34.104C143.466 34.704 143.206 35.184 142.686 35.544C142.166 35.904 141.458 36.084 140.562 36.084Z" fill="#555555"/>
<path d="M150.822 36.12C150.174 36.12 149.546 36.028 148.938 35.844C148.338 35.66 147.862 35.416 147.51 35.112L148.05 33.9C148.394 34.172 148.814 34.396 149.31 34.572C149.814 34.74 150.318 34.824 150.822 34.824C151.446 34.824 151.91 34.724 152.214 34.524C152.526 34.324 152.682 34.06 152.682 33.732C152.682 33.492 152.594 33.296 152.418 33.144C152.25 32.984 152.034 32.86 151.77 32.772C151.506 32.684 151.146 32.584 150.69 32.472C150.05 32.32 149.53 32.168 149.13 32.016C148.738 31.864 148.398 31.628 148.11 31.308C147.83 30.98 147.69 30.54 147.69 29.988C147.69 29.524 147.814 29.104 148.062 28.728C148.318 28.344 148.698 28.04 149.202 27.816C149.714 27.592 150.338 27.48 151.074 27.48C151.586 27.48 152.09 27.544 152.586 27.672C153.082 27.8 153.51 27.984 153.87 28.224L153.378 29.436C153.01 29.22 152.626 29.056 152.226 28.944C151.826 28.832 151.438 28.776 151.062 28.776C150.446 28.776 149.986 28.88 149.682 29.088C149.386 29.296 149.238 29.572 149.238 29.916C149.238 30.156 149.322 30.352 149.49 30.504C149.666 30.656 149.886 30.776 150.15 30.864C150.414 30.952 150.774 31.052 151.23 31.164C151.854 31.308 152.366 31.46 152.766 31.62C153.166 31.772 153.506 32.008 153.786 32.328C154.074 32.648 154.218 33.08 154.218 33.624C154.218 34.088 154.09 34.508 153.834 34.884C153.586 35.26 153.206 35.56 152.694 35.784C152.182 36.008 151.558 36.12 150.822 36.12Z" fill="#555555"/>
<path d="M161.825 29.592V36H160.397V35.184C160.157 35.472 159.857 35.696 159.497 35.856C159.137 36.008 158.749 36.084 158.333 36.084C157.477 36.084 156.801 35.848 156.305 35.376C155.817 34.896 155.573 34.188 155.573 33.252V29.592H157.073V33.048C157.073 33.624 157.201 34.056 157.457 34.344C157.721 34.624 158.093 34.764 158.573 34.764C159.109 34.764 159.533 34.6 159.845 34.272C160.165 33.936 160.325 33.456 160.325 32.832V29.592H161.825Z" fill="#555555"/>
<path d="M165.217 30.528C165.649 29.856 166.409 29.52 167.497 29.52V30.948C167.369 30.924 167.253 30.912 167.149 30.912C166.565 30.912 166.109 31.084 165.781 31.428C165.453 31.764 165.289 32.252 165.289 32.892V36H163.789V29.592H165.217V30.528Z" fill="#555555"/>
<path d="M175.004 29.592L172.256 36H170.708L167.96 29.592H169.52L171.512 34.344L173.564 29.592H175.004Z" fill="#555555"/>
<path d="M181.789 32.832C181.789 32.936 181.781 33.084 181.765 33.276H176.737C176.825 33.748 177.053 34.124 177.421 34.404C177.797 34.676 178.261 34.812 178.813 34.812C179.517 34.812 180.097 34.58 180.553 34.116L181.357 35.04C181.069 35.384 180.705 35.644 180.265 35.82C179.825 35.996 179.329 36.084 178.777 36.084C178.073 36.084 177.453 35.944 176.917 35.664C176.381 35.384 175.965 34.996 175.669 34.5C175.381 33.996 175.237 33.428 175.237 32.796C175.237 32.172 175.377 31.612 175.657 31.116C175.945 30.612 176.341 30.22 176.845 29.94C177.349 29.66 177.917 29.52 178.549 29.52C179.173 29.52 179.729 29.66 180.217 29.94C180.713 30.212 181.097 30.6 181.369 31.104C181.649 31.6 181.789 32.176 181.789 32.832ZM178.549 30.72C178.069 30.72 177.661 30.864 177.325 31.152C176.997 31.432 176.797 31.808 176.725 32.28H180.361C180.297 31.816 180.101 31.44 179.773 31.152C179.445 30.864 179.037 30.72 178.549 30.72Z" fill="#555555"/>
<path d="M189.113 29.592L186.113 36.516C185.833 37.212 185.493 37.7 185.093 37.98C184.693 38.268 184.209 38.412 183.641 38.412C183.321 38.412 183.005 38.36 182.693 38.256C182.381 38.152 182.125 38.008 181.925 37.824L182.525 36.72C182.669 36.856 182.837 36.964 183.029 37.044C183.229 37.124 183.429 37.164 183.629 37.164C183.893 37.164 184.109 37.096 184.277 36.96C184.453 36.824 184.613 36.596 184.757 36.276L184.865 36.024L182.069 29.592H183.629L185.645 34.332L187.673 29.592H189.113Z" fill="#555555"/>
</svg>
