<svg width="133" height="14" viewBox="0 0 133 14" fill="none" xmlns="http://www.w3.org/2000/svg">
<path d="M4.242 0.588C5.11 0.588 5.86133 0.732667 6.496 1.022C7.14 1.31133 7.63467 1.722 7.98 2.254C8.32533 2.786 8.498 3.416 8.498 4.144C8.498 4.86267 8.32533 5.49267 7.98 6.034C7.63467 6.566 7.14 6.97667 6.496 7.266C5.86133 7.546 5.11 7.686 4.242 7.686H2.268V10.388H0V0.588H4.242ZM4.116 5.838C4.79733 5.838 5.31533 5.69333 5.67 5.404C6.02467 5.10533 6.202 4.68533 6.202 4.144C6.202 3.59333 6.02467 3.17333 5.67 2.884C5.31533 2.58533 4.79733 2.436 4.116 2.436H2.268V5.838H4.116Z" fill="#515151"/>
<path d="M13.5335 10.5C12.7402 10.5 12.0262 10.3367 11.3915 10.01C10.7662 9.674 10.2762 9.212 9.92152 8.624C9.56685 8.036 9.38952 7.36867 9.38952 6.622C9.38952 5.87533 9.56685 5.208 9.92152 4.62C10.2762 4.032 10.7662 3.57467 11.3915 3.248C12.0262 2.912 12.7402 2.744 13.5335 2.744C14.3268 2.744 15.0362 2.912 15.6615 3.248C16.2868 3.57467 16.7768 4.032 17.1315 4.62C17.4862 5.208 17.6635 5.87533 17.6635 6.622C17.6635 7.36867 17.4862 8.036 17.1315 8.624C16.7768 9.212 16.2868 9.674 15.6615 10.01C15.0362 10.3367 14.3268 10.5 13.5335 10.5ZM13.5335 8.708C14.0935 8.708 14.5508 8.52133 14.9055 8.148C15.2695 7.76533 15.4515 7.25667 15.4515 6.622C15.4515 5.98733 15.2695 5.48333 14.9055 5.11C14.5508 4.72733 14.0935 4.536 13.5335 4.536C12.9735 4.536 12.5115 4.72733 12.1475 5.11C11.7835 5.48333 11.6015 5.98733 11.6015 6.622C11.6015 7.25667 11.7835 7.76533 12.1475 8.148C12.5115 8.52133 12.9735 8.708 13.5335 8.708Z" fill="#515151"/>
<path d="M31.0143 2.856L28.2843 10.388H26.1843L24.4903 5.712L22.7403 10.388H20.6403L17.9243 2.856H19.9823L21.7603 7.952L23.6083 2.856H25.4563L27.2483 7.952L29.0823 2.856H31.0143Z" fill="#515151"/>
<path d="M39.2025 6.65C39.2025 6.678 39.1885 6.874 39.1605 7.238H33.4625C33.5652 7.70467 33.8079 8.07333 34.1905 8.344C34.5732 8.61467 35.0492 8.75 35.6185 8.75C36.0105 8.75 36.3558 8.694 36.6545 8.582C36.9625 8.46067 37.2472 8.274 37.5085 8.022L38.6705 9.282C37.9612 10.094 36.9252 10.5 35.5625 10.5C34.7132 10.5 33.9619 10.3367 33.3085 10.01C32.6552 9.674 32.1512 9.212 31.7965 8.624C31.4418 8.036 31.2645 7.36867 31.2645 6.622C31.2645 5.88467 31.4372 5.222 31.7825 4.634C32.1372 4.03667 32.6178 3.57467 33.2245 3.248C33.8405 2.912 34.5265 2.744 35.2825 2.744C36.0199 2.744 36.6872 2.90267 37.2845 3.22C37.8818 3.53733 38.3485 3.99467 38.6845 4.592C39.0299 5.18 39.2025 5.866 39.2025 6.65ZM35.2965 4.396C34.8018 4.396 34.3865 4.536 34.0505 4.816C33.7145 5.096 33.5092 5.47867 33.4345 5.964H37.1445C37.0698 5.488 36.8645 5.11 36.5285 4.83C36.1925 4.54067 35.7818 4.396 35.2965 4.396Z" fill="#515151"/>
<path d="M42.7425 3.85C43.0039 3.486 43.3539 3.21067 43.7925 3.024C44.2405 2.83733 44.7539 2.744 45.3325 2.744V4.76C45.0899 4.74133 44.9265 4.732 44.8425 4.732C44.2172 4.732 43.7272 4.90933 43.3725 5.264C43.0179 5.60933 42.8405 6.132 42.8405 6.832V10.388H40.6565V2.856H42.7425V3.85Z" fill="#515151"/>
<path d="M53.9408 6.65C53.9408 6.678 53.9268 6.874 53.8988 7.238H48.2008C48.3035 7.70467 48.5461 8.07333 48.9288 8.344C49.3115 8.61467 49.7875 8.75 50.3568 8.75C50.7488 8.75 51.0941 8.694 51.3928 8.582C51.7008 8.46067 51.9855 8.274 52.2468 8.022L53.4088 9.282C52.6995 10.094 51.6635 10.5 50.3008 10.5C49.4515 10.5 48.7001 10.3367 48.0468 10.01C47.3935 9.674 46.8895 9.212 46.5348 8.624C46.1801 8.036 46.0028 7.36867 46.0028 6.622C46.0028 5.88467 46.1755 5.222 46.5208 4.634C46.8755 4.03667 47.3561 3.57467 47.9628 3.248C48.5788 2.912 49.2648 2.744 50.0208 2.744C50.7581 2.744 51.4255 2.90267 52.0228 3.22C52.6201 3.53733 53.0868 3.99467 53.4228 4.592C53.7681 5.18 53.9408 5.866 53.9408 6.65ZM50.0348 4.396C49.5401 4.396 49.1248 4.536 48.7888 4.816C48.4528 5.096 48.2475 5.47867 48.1728 5.964H51.8828C51.8081 5.488 51.6028 5.11 51.2668 4.83C50.9308 4.54067 50.5201 4.396 50.0348 4.396Z" fill="#515151"/>
<path d="M63.0668 0V10.388H60.9808V9.52C60.4395 10.1733 59.6555 10.5 58.6288 10.5C57.9195 10.5 57.2755 10.3413 56.6968 10.024C56.1275 9.70667 55.6795 9.254 55.3528 8.666C55.0262 8.078 54.8628 7.39667 54.8628 6.622C54.8628 5.84733 55.0262 5.166 55.3528 4.578C55.6795 3.99 56.1275 3.53733 56.6968 3.22C57.2755 2.90267 57.9195 2.744 58.6288 2.744C59.5902 2.744 60.3415 3.04733 60.8828 3.654V0H63.0668ZM59.0068 8.708C59.5575 8.708 60.0148 8.52133 60.3788 8.148C60.7428 7.76533 60.9248 7.25667 60.9248 6.622C60.9248 5.98733 60.7428 5.48333 60.3788 5.11C60.0148 4.72733 59.5575 4.536 59.0068 4.536C58.4468 4.536 57.9848 4.72733 57.6208 5.11C57.2568 5.48333 57.0748 5.98733 57.0748 6.622C57.0748 7.25667 57.2568 7.76533 57.6208 8.148C57.9848 8.52133 58.4468 8.708 59.0068 8.708Z" fill="#515151"/>
<path d="M73.505 2.744C74.205 2.744 74.8397 2.90733 75.409 3.234C75.9877 3.55133 76.4404 4.004 76.767 4.592C77.0937 5.17067 77.257 5.84733 77.257 6.622C77.257 7.39667 77.0937 8.078 76.767 8.666C76.4404 9.24467 75.9877 9.69733 75.409 10.024C74.8397 10.3413 74.205 10.5 73.505 10.5C72.469 10.5 71.6804 10.1733 71.139 9.52V10.388H69.053V0H71.237V3.654C71.7877 3.04733 72.5437 2.744 73.505 2.744ZM73.127 8.708C73.687 8.708 74.1444 8.52133 74.499 8.148C74.863 7.76533 75.045 7.25667 75.045 6.622C75.045 5.98733 74.863 5.48333 74.499 5.11C74.1444 4.72733 73.687 4.536 73.127 4.536C72.567 4.536 72.105 4.72733 71.741 5.11C71.3864 5.48333 71.209 5.98733 71.209 6.622C71.209 7.25667 71.3864 7.76533 71.741 8.148C72.105 8.52133 72.567 8.708 73.127 8.708Z" fill="#515151"/>
<path d="M85.99 2.856L82.588 10.85C82.2426 11.718 81.8133 12.3293 81.3 12.684C80.796 13.0387 80.1846 13.216 79.466 13.216C79.074 13.216 78.6866 13.1553 78.304 13.034C77.9213 12.9127 77.6086 12.7447 77.366 12.53L78.164 10.976C78.332 11.1253 78.5233 11.242 78.738 11.326C78.962 11.41 79.1813 11.452 79.396 11.452C79.6946 11.452 79.9373 11.3773 80.124 11.228C80.3106 11.088 80.4786 10.85 80.628 10.514L80.656 10.444L77.394 2.856H79.648L81.762 7.966L83.89 2.856H85.99Z" fill="#515151"/>
<path d="M95.704 6.916V10.388H93.436V6.888L89.642 0.588H92.05L94.668 4.942L97.286 0.588H99.512L95.704 6.916Z" fill="#515151"/>
<path d="M104.678 10.556C103.278 10.556 102.186 10.1687 101.402 9.394C100.628 8.61933 100.24 7.51333 100.24 6.076V0.588H102.508V5.992C102.508 7.74667 103.236 8.624 104.692 8.624C105.402 8.624 105.943 8.414 106.316 7.994C106.69 7.56467 106.876 6.89733 106.876 5.992V0.588H109.116V6.076C109.116 7.51333 108.724 8.61933 107.94 9.394C107.166 10.1687 106.078 10.556 104.678 10.556Z" fill="#515151"/>
<path d="M120.345 0.588V10.388H118.483L113.597 4.438V10.388H111.357V0.588H113.233L118.105 6.538V0.588H120.345Z" fill="#515151"/>
<path d="M127.41 10.556C126.393 10.556 125.473 10.3367 124.652 9.898C123.84 9.45933 123.201 8.85733 122.734 8.092C122.277 7.31733 122.048 6.44933 122.048 5.488C122.048 4.52667 122.277 3.66333 122.734 2.898C123.201 2.12333 123.84 1.51667 124.652 1.078C125.473 0.639334 126.393 0.42 127.41 0.42C128.427 0.42 129.342 0.639334 130.154 1.078C130.966 1.51667 131.605 2.12333 132.072 2.898C132.539 3.66333 132.772 4.52667 132.772 5.488C132.772 6.44933 132.539 7.31733 132.072 8.092C131.605 8.85733 130.966 9.45933 130.154 9.898C129.342 10.3367 128.427 10.556 127.41 10.556ZM127.41 8.624C127.989 8.624 128.511 8.49333 128.978 8.232C129.445 7.96133 129.809 7.588 130.07 7.112C130.341 6.636 130.476 6.09467 130.476 5.488C130.476 4.88133 130.341 4.34 130.07 3.864C129.809 3.388 129.445 3.01933 128.978 2.758C128.511 2.48733 127.989 2.352 127.41 2.352C126.831 2.352 126.309 2.48733 125.842 2.758C125.375 3.01933 125.007 3.388 124.736 3.864C124.475 4.34 124.344 4.88133 124.344 5.488C124.344 6.09467 124.475 6.636 124.736 7.112C125.007 7.588 125.375 7.96133 125.842 8.232C126.309 8.49333 126.831 8.624 127.41 8.624Z" fill="#515151"/>
</svg>
