<svg width="264" height="50" viewBox="0 0 264 50" fill="none" xmlns="http://www.w3.org/2000/svg">
<path d="M9.95401 27.634H2.93401L1.42201 31H0.0360107L5.79601 18.4H7.11001L12.87 31H11.466L9.95401 27.634ZM9.46801 26.554L6.44401 19.786L3.42001 26.554H9.46801Z" fill="#2E2E2E"/>
<path d="M14.6844 17.644H15.9624V31H14.6844V17.644Z" fill="#2E2E2E"/>
<path d="M19.5183 17.644H20.7963V31H19.5183V17.644Z" fill="#2E2E2E"/>
<path d="M30.2873 23.386C30.5873 22.75 31.0313 22.27 31.6193 21.946C32.2193 21.622 32.9573 21.46 33.8333 21.46V22.702L33.5273 22.684C32.5313 22.684 31.7513 22.99 31.1873 23.602C30.6233 24.214 30.3413 25.072 30.3413 26.176V31H29.0633V21.532H30.2873V23.386Z" fill="#2E2E2E"/>
<path d="M36.1472 21.532H37.4252V31H36.1472V21.532ZM36.7952 19.462C36.5312 19.462 36.3092 19.372 36.1292 19.192C35.9492 19.012 35.8592 18.796 35.8592 18.544C35.8592 18.304 35.9492 18.094 36.1292 17.914C36.3092 17.734 36.5312 17.644 36.7952 17.644C37.0592 17.644 37.2812 17.734 37.4612 17.914C37.6412 18.082 37.7312 18.286 37.7312 18.526C37.7312 18.79 37.6412 19.012 37.4612 19.192C37.2812 19.372 37.0592 19.462 36.7952 19.462Z" fill="#2E2E2E"/>
<path d="M49.7472 21.532V29.848C49.7472 31.456 49.3512 32.644 48.5592 33.412C47.7792 34.192 46.5972 34.582 45.0132 34.582C44.1372 34.582 43.3032 34.45 42.5112 34.186C41.7312 33.934 41.0952 33.58 40.6032 33.124L41.2512 32.152C41.7072 32.56 42.2592 32.878 42.9072 33.106C43.5672 33.334 44.2572 33.448 44.9772 33.448C46.1772 33.448 47.0592 33.166 47.6232 32.602C48.1872 32.05 48.4692 31.186 48.4692 30.01V28.804C48.0732 29.404 47.5512 29.86 46.9032 30.172C46.2672 30.484 45.5592 30.64 44.7792 30.64C43.8912 30.64 43.0812 30.448 42.3492 30.064C41.6292 29.668 41.0592 29.122 40.6392 28.426C40.2312 27.718 40.0272 26.92 40.0272 26.032C40.0272 25.144 40.2312 24.352 40.6392 23.656C41.0592 22.96 41.6292 22.42 42.3492 22.036C43.0692 21.652 43.8792 21.46 44.7792 21.46C45.5832 21.46 46.3092 21.622 46.9572 21.946C47.6052 22.27 48.1272 22.738 48.5232 23.35V21.532H49.7472ZM44.9052 29.506C45.5892 29.506 46.2072 29.362 46.7592 29.074C47.3112 28.774 47.7372 28.36 48.0372 27.832C48.3492 27.304 48.5052 26.704 48.5052 26.032C48.5052 25.36 48.3492 24.766 48.0372 24.25C47.7372 23.722 47.3112 23.314 46.7592 23.026C46.2192 22.726 45.6012 22.576 44.9052 22.576C44.2212 22.576 43.6032 22.72 43.0512 23.008C42.5112 23.296 42.0852 23.704 41.7732 24.232C41.4732 24.76 41.3232 25.36 41.3232 26.032C41.3232 26.704 41.4732 27.304 41.7732 27.832C42.0852 28.36 42.5112 28.774 43.0512 29.074C43.6032 29.362 44.2212 29.506 44.9052 29.506Z" fill="#2E2E2E"/>
<path d="M58.1451 21.46C59.3331 21.46 60.2751 21.808 60.9711 22.504C61.6791 23.188 62.0331 24.19 62.0331 25.51V31H60.7551V25.636C60.7551 24.652 60.5091 23.902 60.0171 23.386C59.5251 22.87 58.8231 22.612 57.9111 22.612C56.8911 22.612 56.0811 22.918 55.4811 23.53C54.8931 24.13 54.5991 24.964 54.5991 26.032V31H53.3211V17.644H54.5991V23.188C54.9471 22.636 55.4271 22.21 56.0391 21.91C56.6511 21.61 57.3531 21.46 58.1451 21.46Z" fill="#2E2E2E"/>
<path d="M70.4887 30.424C70.2487 30.64 69.9487 30.808 69.5887 30.928C69.2407 31.036 68.8747 31.09 68.4907 31.09C67.6027 31.09 66.9187 30.85 66.4387 30.37C65.9587 29.89 65.7187 29.212 65.7187 28.336V22.612H64.0267V21.532H65.7187V19.462H66.9967V21.532H69.8767V22.612H66.9967V28.264C66.9967 28.828 67.1347 29.26 67.4107 29.56C67.6987 29.848 68.1067 29.992 68.6347 29.992C68.8987 29.992 69.1507 29.95 69.3907 29.866C69.6427 29.782 69.8587 29.662 70.0387 29.506L70.4887 30.424Z" fill="#2E2E2E"/>
<path d="M75.3532 31.09C74.5852 31.09 73.8472 30.982 73.1392 30.766C72.4432 30.538 71.8972 30.256 71.5012 29.92L72.0772 28.912C72.4732 29.224 72.9712 29.482 73.5712 29.686C74.1712 29.878 74.7952 29.974 75.4432 29.974C76.3072 29.974 76.9432 29.842 77.3512 29.578C77.7712 29.302 77.9812 28.918 77.9812 28.426C77.9812 28.078 77.8672 27.808 77.6392 27.616C77.4112 27.412 77.1232 27.262 76.7752 27.166C76.4272 27.058 75.9652 26.956 75.3892 26.86C74.6212 26.716 74.0032 26.572 73.5352 26.428C73.0672 26.272 72.6652 26.014 72.3292 25.654C72.0052 25.294 71.8432 24.796 71.8432 24.16C71.8432 23.368 72.1732 22.72 72.8332 22.216C73.4932 21.712 74.4112 21.46 75.5872 21.46C76.1992 21.46 76.8112 21.544 77.4232 21.712C78.0352 21.868 78.5392 22.078 78.9352 22.342L78.3772 23.368C77.5972 22.828 76.6672 22.558 75.5872 22.558C74.7712 22.558 74.1532 22.702 73.7332 22.99C73.3252 23.278 73.1212 23.656 73.1212 24.124C73.1212 24.484 73.2352 24.772 73.4632 24.988C73.7032 25.204 73.9972 25.366 74.3452 25.474C74.6932 25.57 75.1732 25.672 75.7852 25.78C76.5412 25.924 77.1472 26.068 77.6032 26.212C78.0592 26.356 78.4492 26.602 78.7732 26.95C79.0972 27.298 79.2592 27.778 79.2592 28.39C79.2592 29.218 78.9112 29.878 78.2152 30.37C77.5312 30.85 76.5772 31.09 75.3532 31.09Z" fill="#2E2E2E"/>
<path d="M87.5568 23.386C87.8568 22.75 88.3008 22.27 88.8888 21.946C89.4888 21.622 90.2268 21.46 91.1028 21.46V22.702L90.7968 22.684C89.8008 22.684 89.0208 22.99 88.4568 23.602C87.8928 24.214 87.6108 25.072 87.6108 26.176V31H86.3328V21.532H87.5568V23.386Z" fill="#2E2E2E"/>
<path d="M101.573 26.662H93.6529C93.7249 27.646 94.1029 28.444 94.7869 29.056C95.4709 29.656 96.3349 29.956 97.3789 29.956C97.9669 29.956 98.5069 29.854 98.9989 29.65C99.4909 29.434 99.9169 29.122 100.277 28.714L100.997 29.542C100.577 30.046 100.049 30.43 99.4129 30.694C98.7889 30.958 98.0989 31.09 97.3429 31.09C96.3709 31.09 95.5069 30.886 94.7509 30.478C94.0069 30.058 93.4249 29.482 93.0049 28.75C92.5849 28.018 92.3749 27.19 92.3749 26.266C92.3749 25.342 92.5729 24.514 92.9689 23.782C93.3769 23.05 93.9289 22.48 94.6249 22.072C95.3329 21.664 96.1249 21.46 97.0009 21.46C97.8769 21.46 98.6629 21.664 99.3589 22.072C100.055 22.48 100.601 23.05 100.997 23.782C101.393 24.502 101.591 25.33 101.591 26.266L101.573 26.662ZM97.0009 22.558C96.0889 22.558 95.3209 22.852 94.6969 23.44C94.0849 24.016 93.7369 24.772 93.6529 25.708H100.367C100.283 24.772 99.9289 24.016 99.3049 23.44C98.6929 22.852 97.9249 22.558 97.0009 22.558Z" fill="#2E2E2E"/>
<path d="M106.73 31.09C105.962 31.09 105.224 30.982 104.516 30.766C103.82 30.538 103.274 30.256 102.878 29.92L103.454 28.912C103.85 29.224 104.348 29.482 104.948 29.686C105.548 29.878 106.172 29.974 106.82 29.974C107.684 29.974 108.32 29.842 108.728 29.578C109.148 29.302 109.358 28.918 109.358 28.426C109.358 28.078 109.244 27.808 109.016 27.616C108.788 27.412 108.5 27.262 108.152 27.166C107.804 27.058 107.342 26.956 106.766 26.86C105.998 26.716 105.38 26.572 104.912 26.428C104.444 26.272 104.042 26.014 103.706 25.654C103.382 25.294 103.22 24.796 103.22 24.16C103.22 23.368 103.55 22.72 104.21 22.216C104.87 21.712 105.788 21.46 106.964 21.46C107.576 21.46 108.188 21.544 108.8 21.712C109.412 21.868 109.916 22.078 110.312 22.342L109.754 23.368C108.974 22.828 108.044 22.558 106.964 22.558C106.148 22.558 105.53 22.702 105.11 22.99C104.702 23.278 104.498 23.656 104.498 24.124C104.498 24.484 104.612 24.772 104.84 24.988C105.08 25.204 105.374 25.366 105.722 25.474C106.07 25.57 106.55 25.672 107.162 25.78C107.918 25.924 108.524 26.068 108.98 26.212C109.436 26.356 109.826 26.602 110.15 26.95C110.474 27.298 110.636 27.778 110.636 28.39C110.636 29.218 110.288 29.878 109.592 30.37C108.908 30.85 107.954 31.09 106.73 31.09Z" fill="#2E2E2E"/>
<path d="M121.243 26.662H113.323C113.395 27.646 113.773 28.444 114.457 29.056C115.141 29.656 116.005 29.956 117.049 29.956C117.637 29.956 118.177 29.854 118.669 29.65C119.161 29.434 119.587 29.122 119.947 28.714L120.667 29.542C120.247 30.046 119.719 30.43 119.083 30.694C118.459 30.958 117.769 31.09 117.013 31.09C116.041 31.09 115.177 30.886 114.421 30.478C113.677 30.058 113.095 29.482 112.675 28.75C112.255 28.018 112.045 27.19 112.045 26.266C112.045 25.342 112.243 24.514 112.639 23.782C113.047 23.05 113.599 22.48 114.295 22.072C115.003 21.664 115.795 21.46 116.671 21.46C117.547 21.46 118.333 21.664 119.029 22.072C119.725 22.48 120.271 23.05 120.667 23.782C121.063 24.502 121.261 25.33 121.261 26.266L121.243 26.662ZM116.671 22.558C115.759 22.558 114.991 22.852 114.367 23.44C113.755 24.016 113.407 24.772 113.323 25.708H120.037C119.953 24.772 119.599 24.016 118.975 23.44C118.363 22.852 117.595 22.558 116.671 22.558Z" fill="#2E2E2E"/>
<path d="M125.086 23.386C125.386 22.75 125.83 22.27 126.418 21.946C127.018 21.622 127.756 21.46 128.632 21.46V22.702L128.326 22.684C127.33 22.684 126.55 22.99 125.986 23.602C125.422 24.214 125.14 25.072 125.14 26.176V31H123.862V21.532H125.086V23.386Z" fill="#2E2E2E"/>
<path d="M139.306 21.532L135.094 31H133.78L129.586 21.532H130.918L134.464 29.596L138.046 21.532H139.306Z" fill="#2E2E2E"/>
<path d="M149.087 26.662H141.167C141.239 27.646 141.617 28.444 142.301 29.056C142.985 29.656 143.849 29.956 144.893 29.956C145.481 29.956 146.021 29.854 146.513 29.65C147.005 29.434 147.431 29.122 147.791 28.714L148.511 29.542C148.091 30.046 147.563 30.43 146.927 30.694C146.303 30.958 145.613 31.09 144.857 31.09C143.885 31.09 143.021 30.886 142.265 30.478C141.521 30.058 140.939 29.482 140.519 28.75C140.099 28.018 139.889 27.19 139.889 26.266C139.889 25.342 140.087 24.514 140.483 23.782C140.891 23.05 141.443 22.48 142.139 22.072C142.847 21.664 143.639 21.46 144.515 21.46C145.391 21.46 146.177 21.664 146.873 22.072C147.569 22.48 148.115 23.05 148.511 23.782C148.907 24.502 149.105 25.33 149.105 26.266L149.087 26.662ZM144.515 22.558C143.603 22.558 142.835 22.852 142.211 23.44C141.599 24.016 141.251 24.772 141.167 25.708H147.881C147.797 24.772 147.443 24.016 146.819 23.44C146.207 22.852 145.439 22.558 144.515 22.558Z" fill="#2E2E2E"/>
<path d="M160.346 17.644V31H159.122V29.128C158.738 29.764 158.228 30.25 157.592 30.586C156.968 30.922 156.26 31.09 155.468 31.09C154.58 31.09 153.776 30.886 153.056 30.478C152.336 30.07 151.772 29.5 151.364 28.768C150.956 28.036 150.752 27.202 150.752 26.266C150.752 25.33 150.956 24.496 151.364 23.764C151.772 23.032 152.336 22.468 153.056 22.072C153.776 21.664 154.58 21.46 155.468 21.46C156.236 21.46 156.926 21.622 157.538 21.946C158.162 22.258 158.672 22.72 159.068 23.332V17.644H160.346ZM155.576 29.956C156.236 29.956 156.83 29.806 157.358 29.506C157.898 29.194 158.318 28.756 158.618 28.192C158.93 27.628 159.086 26.986 159.086 26.266C159.086 25.546 158.93 24.904 158.618 24.34C158.318 23.776 157.898 23.344 157.358 23.044C156.83 22.732 156.236 22.576 155.576 22.576C154.904 22.576 154.298 22.732 153.758 23.044C153.23 23.344 152.81 23.776 152.498 24.34C152.198 24.904 152.048 25.546 152.048 26.266C152.048 26.986 152.198 27.628 152.498 28.192C152.81 28.756 153.23 29.194 153.758 29.506C154.298 29.806 154.904 29.956 155.576 29.956Z" fill="#2E2E2E"/>
<g clip-path="url(#clip0_2_28)">
<mask id="mask0_2_28" style="mask-type:alpha" maskUnits="userSpaceOnUse" x="172" y="0" width="92" height="50">
<path d="M172.234 19.9168L178.109 2.34618C178.577 0.944638 179.887 0 181.362 0C183.599 0 185.237 2.12366 184.626 4.28005C180.112 20.2149 177.182 20.5742 185.772 20.5735C188.735 20.5735 190.777 23.5499 189.716 26.3217L189.238 27.5717L184.935 39.0683C184.491 40.2554 183.359 41.0418 182.093 41.0418C179.952 41.0418 178.484 38.8801 179.27 36.8842L182.936 27.5717H178.893C173.518 27.4953 172.089 23.6867 172.002 21.2656C171.985 20.8059 172.088 20.353 172.234 19.9168Z" fill="white"/>
<path d="M191.581 2.17311L187.244 14.6526C186.524 16.7249 188.06 18.8898 190.25 18.8898C191.595 18.8898 192.795 18.0419 193.247 16.772L197.676 4.32516C198.426 2.21685 196.866 0 194.632 0C193.257 0 192.033 0.871936 191.581 2.17311Z" fill="white"/>
<path d="M192.902 28.7348L196.971 17.3222C197.435 16.0219 198.664 15.1539 200.043 15.1539C202.27 15.1539 203.842 17.3411 203.136 19.4576L200.061 28.6767H206.888L210.659 17.3695C211.1 16.0462 212.337 15.1539 213.729 15.1539C215.94 15.1539 217.5 17.3249 216.799 19.4258L212.668 31.8126C211.909 34.088 209.783 35.6222 207.389 35.6222H204.571H197.745C194.188 35.6222 191.705 32.091 192.902 28.7348Z" fill="white"/>
<path d="M216.233 31.4006L220.369 18.9676C221.126 16.6901 223.253 15.1539 225.649 15.1539H228.516H235.395C238.709 15.1539 241.054 18.3986 240.021 21.5532L236.134 33.4187C235.693 34.7647 234.439 35.6748 233.026 35.6748C230.786 35.6748 229.208 33.4709 229.926 31.3451L233.014 22.2047H226.153L222.379 33.4615C221.936 34.7839 220.699 35.6748 219.307 35.6748C217.095 35.6748 215.533 33.5033 216.233 31.4006Z" fill="white"/>
<path fill-rule="evenodd" clip-rule="evenodd" d="M180.101 41.0418C178.883 41.0418 177.895 42.0312 177.895 43.2518C177.895 44.4723 178.883 45.4617 180.101 45.4617C181.319 45.4617 182.306 44.4723 182.306 43.2518C182.306 42.0312 181.319 41.0418 180.101 41.0418ZM180.101 49.5659C183.581 49.5659 186.402 46.7389 186.402 43.2518C186.402 39.7646 183.581 36.9376 180.101 36.9376C176.621 36.9376 173.799 39.7646 173.799 43.2518C173.799 46.7389 176.621 49.5659 180.101 49.5659Z" fill="white"/>
<path d="M244.345 19.0341C245.074 16.8426 247.121 15.3644 249.426 15.3644H258.614C262.27 15.3644 264.851 18.9533 263.695 22.4286L260.44 32.2155C259.711 34.407 257.664 35.8853 255.358 35.8853H246.171C242.515 35.8853 239.933 32.2963 241.089 28.821L244.345 19.0341Z" fill="white"/>
</mask>
<g mask="url(#mask0_2_28)">
<path d="M189.238 24.1515H182.936V30.9918H189.238V24.1515ZM203.65 27.5926L201.334 34.5382L207.808 36.7062L210.125 29.7607L203.65 27.5926ZM196.824 27.5926L194.507 34.5382L200.982 36.7062L203.298 29.7607L196.824 27.5926ZM236.247 23.3011L238.628 16.2504L232.162 14.0575L229.781 21.1082L236.247 23.3011ZM229.388 23.2937L231.752 16.2429L225.281 14.0649L222.917 21.1157L229.388 23.2937ZM178.109 2.34619L184.581 4.51924L178.109 2.34619ZM172.234 19.9168L178.706 22.0899L172.234 19.9168ZM172.002 21.2656L165.18 21.5132L172.002 21.2656ZM178.893 27.5717L178.796 34.4113L178.845 34.412H178.893V27.5717ZM184.626 4.28006L178.059 2.41241L184.626 4.28006ZM185.772 20.5735V13.7332H185.772L185.772 20.5735ZM189.716 26.3217L183.342 23.8726L189.716 26.3217ZM189.238 27.5717L182.864 25.1227L182.855 25.1462L182.846 25.1699L189.238 27.5717ZM187.244 14.6526L180.798 12.4033L187.244 14.6526ZM191.581 2.17312L198.028 4.42239L191.581 2.17312ZM197.676 4.32516L191.246 2.02792L197.676 4.32516ZM193.247 16.772L199.677 19.0692L193.247 16.772ZM184.935 39.0684L178.543 36.6666L184.935 39.0684ZM182.936 27.5717L189.287 30.0821L192.968 20.7314H182.936V27.5717ZM179.27 36.8842L172.92 34.3738H172.92L179.27 36.8842ZM196.971 17.3222L203.4 19.6239L196.971 17.3222ZM192.902 28.7349L199.33 31.0366L192.902 28.7349ZM212.668 31.8126L219.143 33.9806L212.668 31.8126ZM216.799 19.4258L210.325 17.2578L216.799 19.4258ZM210.659 17.3695L217.133 19.5377L210.659 17.3695ZM206.888 28.6767V35.517H211.804L213.362 30.8447L206.888 28.6767ZM203.136 19.4576L209.61 21.6258L203.136 19.4576ZM200.061 28.6767L193.587 26.5086L190.582 35.517H200.061V28.6767ZM216.233 31.4006L209.757 29.2375L216.233 31.4006ZM220.369 18.9676L213.892 16.8045L220.369 18.9676ZM240.021 21.5532L246.507 23.6862L240.021 21.5532ZM236.134 33.4187L229.648 31.2856L236.134 33.4187ZM229.926 31.3451L223.46 29.1522L229.926 31.3451ZM233.014 22.2047L239.48 24.3977L242.531 15.3644H233.014V22.2047ZM222.379 33.4615L215.908 31.2835L222.379 33.4615ZM226.153 22.2047V15.3644H221.244L219.682 20.0266L226.153 22.2047ZM241.089 28.8211L234.613 26.658L241.089 28.8211ZM260.44 32.2155L253.963 30.0524L260.44 32.2155ZM263.695 22.4286L270.172 24.5916L263.695 22.4286ZM244.345 19.0342L250.821 21.1973L244.345 19.0342ZM171.636 0.173145L165.761 17.7438L178.706 22.0899L184.581 4.51924L171.636 0.173145ZM165.18 21.5132C165.262 23.7759 165.952 26.9199 168.197 29.6485C170.646 32.6256 174.324 34.3477 178.796 34.4113L178.99 20.7321C178.718 20.7282 178.546 20.7018 178.457 20.683C178.369 20.6646 178.351 20.6517 178.384 20.6667C178.418 20.6821 178.478 20.7148 178.55 20.7703C178.621 20.8252 178.682 20.8867 178.732 20.9473C178.83 21.0656 178.849 21.1398 178.842 21.1171C178.839 21.1082 178.834 21.0895 178.829 21.0638C178.827 21.0518 178.826 21.0409 178.825 21.0318C178.824 21.0227 178.824 21.0176 178.824 21.0178L165.18 21.5132ZM178.059 2.41241C176.983 6.21018 176.004 9.07479 175.233 11.3378C174.593 13.2145 173.712 15.6721 173.498 17.6724C173.376 18.8105 173.32 20.8737 174.489 22.9639C175.767 25.2488 177.774 26.2991 179.213 26.7705C180.517 27.1976 181.815 27.308 182.692 27.3569C183.644 27.41 184.723 27.4139 185.772 27.4138L185.772 13.7332C184.674 13.7333 183.965 13.7261 183.451 13.6975C182.861 13.6646 183.014 13.6225 183.455 13.767C184.032 13.9559 185.458 14.5934 186.399 16.2761C187.232 17.7641 187.083 19.0355 187.072 19.1328C187.058 19.2711 187.061 19.1256 187.274 18.4177C187.473 17.759 187.754 16.931 188.153 15.7592C188.932 13.4733 190.012 10.3174 191.193 6.1477L178.059 2.41241ZM183.342 23.8726L182.864 25.1227L195.612 30.0207L196.09 28.7707L183.342 23.8726ZM193.691 16.9019L198.028 4.42239L185.134 -0.07616L180.798 12.4033L193.691 16.9019ZM191.246 2.02792L186.817 14.4747L199.677 19.0692L204.106 6.62239L191.246 2.02792ZM182.846 25.1699L178.543 36.6666L191.327 41.4701L195.63 29.9735L182.846 25.1699ZM182.936 20.7314H178.893V34.412H182.936V20.7314ZM185.62 39.3946L189.287 30.0821L176.586 25.0613L172.92 34.3738L185.62 39.3946ZM190.543 15.0206L186.473 26.4332L199.33 31.0366L203.4 19.6239L190.543 15.0206ZM219.143 33.9806L223.274 21.594L210.325 17.2578L206.194 29.6444L219.143 33.9806ZM197.745 42.4625H204.571V28.7819H197.745V42.4625ZM204.571 42.4625H207.389V28.7819H204.571V42.4625ZM204.184 15.2015L200.413 26.5086L213.362 30.8447L217.133 19.5377L204.184 15.2015ZM196.661 17.2896L193.587 26.5086L206.536 30.8447L209.61 21.6258L196.661 17.2896ZM206.888 21.8364H200.061V35.517H206.888V21.8364ZM222.709 33.5637L226.845 21.1308L213.892 16.8045L209.757 29.2375L222.709 33.5637ZM233.535 19.4201L229.648 31.2856L242.62 35.5517L246.507 23.6862L233.535 19.4201ZM225.649 21.9942H228.516V8.31361H225.649V21.9942ZM228.516 21.9942H235.395V8.31361H228.516V21.9942ZM236.392 33.5381L239.48 24.3977L226.548 20.0117L223.46 29.1522L236.392 33.5381ZM228.85 35.6396L232.624 24.3827L219.682 20.0266L215.908 31.2835L228.85 35.6396ZM233.014 15.3644H226.153V29.045H233.014V15.3644ZM229.648 31.2856C230.127 29.8232 231.489 28.8345 233.025 28.8345V42.5151C237.389 42.5151 241.26 39.7064 242.62 35.5517L229.648 31.2856ZM226.845 21.1308C226.673 21.6464 226.192 21.9942 225.649 21.9942V8.31361C220.315 8.31361 215.579 11.7339 213.892 16.8045L226.845 21.1308ZM200.043 21.9942C197.608 21.9942 195.89 19.6033 196.661 17.2896L209.61 21.6258C211.794 15.0789 206.931 8.31361 200.043 8.31361V21.9942ZM213.729 8.31361C209.4 8.31361 205.556 11.0875 204.184 15.2015L217.133 19.5377C216.644 21.0049 215.273 21.9942 213.729 21.9942V8.31361ZM223.274 21.594C225.452 15.0628 220.601 8.31361 213.729 8.31361V21.9942C211.278 21.9942 209.548 19.5872 210.325 17.2578L223.274 21.594ZM206.194 29.6444C206.365 29.1293 206.847 28.7819 207.389 28.7819V42.4625C212.72 42.4625 217.453 39.0467 219.143 33.9806L206.194 29.6444ZM186.473 26.4332C183.688 34.2443 189.467 42.4625 197.745 42.4625V28.7819C198.909 28.7819 199.722 29.9378 199.33 31.0366L186.473 26.4332ZM186.817 14.4747C187.334 13.0205 188.709 12.0495 190.25 12.0495V25.7301C194.481 25.7301 198.256 23.0633 199.677 19.0692L186.817 14.4747ZM194.632 6.84031C192.147 6.84031 190.411 4.37373 191.246 2.02792L204.106 6.62239C206.441 0.059978 201.585 -6.8403 194.632 -6.8403V6.84031ZM198.028 4.42239C197.525 5.87015 196.162 6.84031 194.632 6.84031V-6.8403C190.352 -6.8403 186.541 -4.12627 185.134 -0.0761595L198.028 4.42239ZM219.307 42.5151C223.632 42.5151 227.473 39.7474 228.85 35.6396L215.908 31.2835C216.399 29.8203 217.767 28.8345 219.307 28.8345V42.5151ZM180.798 12.4033C178.533 18.9211 183.362 25.7301 190.25 25.7301V12.0495C192.758 12.0495 194.516 14.5287 193.691 16.9019L180.798 12.4033ZM203.4 19.6239C202.893 21.0454 201.549 21.9942 200.043 21.9942V8.31361C195.78 8.31361 191.977 10.9984 190.543 15.0206L203.4 19.6239ZM246.507 23.6862C248.989 16.1082 243.355 8.31361 235.395 8.31361V21.9942C234.062 21.9942 233.119 20.689 233.535 19.4201L246.507 23.6862ZM181.362 6.84031C179.176 6.84031 177.404 4.72539 178.059 2.41241L191.193 6.1477C193.07 -0.478063 188.023 -6.8403 181.362 -6.8403V6.84031ZM182.093 34.2015C184.768 34.2015 186.601 36.9017 185.62 39.3946L172.92 34.3738C170.366 40.8584 175.136 47.8821 182.093 47.8821V34.2015ZM209.757 29.2375C207.584 35.7695 212.436 42.5151 219.307 42.5151V28.8345C221.755 28.8345 223.483 31.2372 222.709 33.5637L209.757 29.2375ZM165.761 17.7438C165.486 18.5645 165.121 19.8994 165.18 21.5132L178.824 21.0178C178.837 21.3784 178.8 21.6598 178.768 21.8336C178.737 22.003 178.704 22.0979 178.706 22.0899L165.761 17.7438ZM233.025 28.8345C235.459 28.8345 237.172 31.2288 236.392 33.5381L223.46 29.1522C221.244 35.7129 226.113 42.5151 233.025 42.5151V28.8345ZM185.772 27.4138C183.947 27.4138 182.689 25.5802 183.342 23.8726L196.09 28.7707C198.865 21.5196 193.522 13.7332 185.772 13.7332V27.4138ZM178.543 36.6666C179.098 35.1838 180.513 34.2015 182.093 34.2015V47.8821C186.204 47.8821 189.884 45.327 191.327 41.4701L178.543 36.6666ZM184.581 4.51924C184.118 5.90578 182.822 6.84031 181.362 6.84031V-6.8403C176.953 -6.8403 173.037 -4.0165 171.636 0.173145L184.581 4.51924ZM184.722 43.2518C184.722 45.8091 182.653 47.8821 180.101 47.8821V34.2015C175.113 34.2015 171.069 38.2535 171.069 43.2518H184.722ZM180.101 38.6214C182.653 38.6214 184.722 40.6945 184.722 43.2518H171.069C171.069 48.25 175.113 52.302 180.101 52.302V38.6214ZM175.48 43.2518C175.48 40.6945 177.549 38.6214 180.101 38.6214V52.302C185.089 52.302 189.133 48.25 189.133 43.2518H175.48ZM180.101 47.8821C177.549 47.8821 175.48 45.8091 175.48 43.2518H189.133C189.133 38.2535 185.089 34.2015 180.101 34.2015V47.8821ZM179.576 43.2518C179.576 42.9612 179.811 42.7256 180.101 42.7256V56.4062C187.351 56.4062 193.229 50.5168 193.229 43.2518H179.576ZM180.101 43.778C179.811 43.778 179.576 43.5423 179.576 43.2518H193.229C193.229 35.9867 187.351 30.0973 180.101 30.0973V43.778ZM180.626 43.2518C180.626 43.5423 180.391 43.778 180.101 43.778V30.0973C172.85 30.0973 166.973 35.9867 166.973 43.2518H180.626ZM180.101 42.7256C180.391 42.7256 180.626 42.9612 180.626 43.2518H166.973C166.973 50.5168 172.85 56.4062 180.101 56.4062V42.7256ZM249.426 22.2047H258.614V8.52408H249.426V22.2047ZM257.219 20.2655L253.963 30.0524L266.916 34.3785L270.172 24.5916L257.219 20.2655ZM255.358 29.045H246.171V42.7256H255.358V29.045ZM247.565 30.9842L250.821 21.1973L237.869 16.8711L234.613 26.658L247.565 30.9842ZM246.171 29.045C247.174 29.045 247.883 30.0302 247.565 30.9842L234.613 26.658C231.984 34.5626 237.855 42.7256 246.171 42.7256V29.045ZM253.963 30.0524C254.164 29.4508 254.725 29.045 255.358 29.045V42.7256C260.602 42.7256 265.258 39.3633 266.916 34.3785L253.963 30.0524ZM258.614 22.2047C257.611 22.2047 256.902 21.2195 257.219 20.2655L270.172 24.5916C272.801 16.6871 266.929 8.52408 258.614 8.52408V22.2047ZM249.426 8.52408C244.183 8.52408 239.527 11.8863 237.869 16.8711L250.821 21.1973C250.621 21.7989 250.059 22.2047 249.426 22.2047V8.52408Z" fill="#35A670"/>
</g>
</g>
<path d="M193.261 40.1519L192.662 43.1473H192.204L190.976 41.0505L190.557 43.1473H190.005L190.604 40.1519H191.062L192.294 42.2487L192.709 40.1519H193.261Z" fill="#424242"/>
<path d="M196.067 41.8379C196.067 41.9491 196.055 42.0575 196.032 42.1631H194.218C194.227 42.5368 194.446 42.7237 194.877 42.7237C195.008 42.7237 195.131 42.7037 195.245 42.6637C195.359 42.621 195.456 42.5625 195.536 42.4883L195.758 42.8606C195.641 42.9661 195.5 43.046 195.335 43.1002C195.172 43.1516 195.001 43.1772 194.821 43.1772C194.593 43.1772 194.393 43.1359 194.222 43.0531C194.054 42.9704 193.924 42.8535 193.833 42.7023C193.742 42.5482 193.696 42.3713 193.696 42.1717C193.696 41.9178 193.752 41.6895 193.863 41.487C193.977 41.2816 194.134 41.1219 194.333 41.0077C194.536 40.8936 194.763 40.8366 195.014 40.8366C195.333 40.8366 195.589 40.9264 195.78 41.1062C195.971 41.283 196.067 41.5269 196.067 41.8379ZM194.988 41.2645C194.808 41.2645 194.654 41.313 194.526 41.41C194.401 41.507 194.314 41.6396 194.265 41.8079H195.574C195.577 41.6368 195.525 41.5041 195.416 41.41C195.311 41.313 195.168 41.2645 194.988 41.2645Z" fill="#424242"/>
<path d="M197.334 42.3813C197.328 42.427 197.325 42.4598 197.325 42.4797C197.325 42.6509 197.415 42.7365 197.595 42.7365C197.706 42.7365 197.806 42.7065 197.894 42.6466L197.988 43.0403C197.843 43.1316 197.659 43.1772 197.436 43.1772C197.24 43.1772 197.081 43.123 196.961 43.0146C196.842 42.9062 196.782 42.7565 196.782 42.5653C196.782 42.5026 196.787 42.4427 196.799 42.3856L197.017 41.3073H196.645L196.73 40.8794H197.103L197.205 40.3573H197.74L197.633 40.8794H198.249L198.164 41.3073H197.548L197.334 42.3813Z" fill="#424242"/>
<path d="M202.657 40.8623L201.382 43.1473H200.856L200.548 41.5726L199.653 43.1473H199.135L198.716 40.8623H199.204L199.495 42.5439L200.449 40.8623H200.907L201.211 42.5439L202.152 40.8623H202.657Z" fill="#424242"/>
<path d="M203.878 43.1772C203.655 43.1772 203.46 43.1359 203.291 43.0531C203.126 42.9676 202.998 42.8492 202.906 42.698C202.815 42.5468 202.769 42.3713 202.769 42.1717C202.769 41.9178 202.826 41.6895 202.941 41.487C203.058 41.2845 203.219 41.1261 203.424 41.012C203.632 40.8951 203.866 40.8366 204.126 40.8366C204.348 40.8366 204.544 40.878 204.712 40.9607C204.88 41.0434 205.01 41.1604 205.101 41.3116C205.193 41.4628 205.238 41.6382 205.238 41.8379C205.238 42.0918 205.18 42.32 205.063 42.5225C204.946 42.7251 204.783 42.8848 204.575 43.0018C204.37 43.1188 204.137 43.1772 203.878 43.1772ZM203.912 42.7194C204.063 42.7194 204.197 42.6837 204.314 42.6124C204.434 42.5382 204.528 42.437 204.597 42.3086C204.665 42.1774 204.699 42.029 204.699 41.8636C204.699 41.6838 204.646 41.5441 204.541 41.4442C204.435 41.3415 204.287 41.2902 204.096 41.2902C203.945 41.2902 203.809 41.3273 203.689 41.4014C203.572 41.4727 203.48 41.574 203.411 41.7052C203.343 41.8336 203.309 41.9805 203.309 42.146C203.309 42.3257 203.361 42.4669 203.467 42.5696C203.572 42.6695 203.721 42.7194 203.912 42.7194Z" fill="#424242"/>
<path d="M206.666 41.1575C206.765 41.0406 206.887 40.9578 207.029 40.9093C207.175 40.8608 207.347 40.8366 207.547 40.8366L207.449 41.3458C207.4 41.3372 207.356 41.333 207.316 41.333C206.88 41.333 206.616 41.5626 206.524 42.0219L206.298 43.1473H205.763L206.216 40.8623H206.726L206.666 41.1575Z" fill="#424242"/>
<path d="M209.357 41.8422L210.162 43.1473H209.541L208.929 42.1588L208.45 42.5439L208.33 43.1473H207.795L208.429 39.9722H208.964L208.587 41.8678L209.841 40.8623H210.568L209.357 41.8422Z" fill="#424242"/>
<path d="M214.853 40.8623L214.4 43.1473H213.89L213.937 42.9119C213.738 43.0888 213.49 43.1772 213.193 43.1772C213.005 43.1772 212.833 43.1373 212.679 43.0574C212.528 42.9775 212.408 42.862 212.32 42.7108C212.232 42.5568 212.187 42.3771 212.187 42.1717C212.187 41.9178 212.243 41.6895 212.354 41.487C212.468 41.2816 212.622 41.1219 212.816 41.0077C213.013 40.8936 213.233 40.8366 213.475 40.8366C213.84 40.8366 214.1 40.9578 214.254 41.2003L214.318 40.8623H214.853ZM213.33 42.7194C213.481 42.7194 213.615 42.6837 213.732 42.6124C213.852 42.5382 213.946 42.437 214.015 42.3086C214.083 42.1774 214.117 42.029 214.117 41.8636C214.117 41.6838 214.064 41.5441 213.959 41.4442C213.853 41.3415 213.705 41.2902 213.514 41.2902C213.363 41.2902 213.227 41.3273 213.107 41.4014C212.99 41.4727 212.898 41.574 212.829 41.7052C212.761 41.8336 212.727 41.9805 212.727 42.146C212.727 42.3257 212.779 42.4669 212.885 42.5696C212.99 42.6695 213.139 42.7194 213.33 42.7194Z" fill="#424242"/>
<path d="M217.055 40.8366C217.312 40.8366 217.514 40.9036 217.663 41.0377C217.814 41.1718 217.889 41.3615 217.889 41.6068C217.889 41.6753 217.879 41.7666 217.859 41.8807L217.607 43.1473H217.072L217.32 41.8935C217.332 41.8365 217.337 41.778 217.337 41.7181C217.337 41.4414 217.185 41.303 216.88 41.303C216.683 41.303 216.52 41.3586 216.392 41.4699C216.263 41.5783 216.176 41.7423 216.131 41.962L215.891 43.1473H215.356L215.81 40.8623H216.319L216.268 41.1147C216.473 40.9293 216.735 40.8366 217.055 40.8366Z" fill="#424242"/>
<path d="M221.43 39.9722L220.797 43.1473H220.288L220.335 42.9119C220.129 43.0888 219.883 43.1772 219.594 43.1772C219.406 43.1772 219.235 43.1373 219.081 43.0574C218.93 42.9775 218.81 42.862 218.721 42.7108C218.633 42.5568 218.589 42.3771 218.589 42.1717C218.589 41.9149 218.644 41.6853 218.756 41.4827C218.867 41.2802 219.02 41.1219 219.214 41.0077C219.41 40.8936 219.63 40.8366 219.873 40.8366C220.052 40.8366 220.208 40.8665 220.339 40.9264C220.473 40.9864 220.577 41.0748 220.651 41.1917L220.895 39.9722H221.43ZM219.731 42.7194C219.88 42.7194 220.014 42.6837 220.134 42.6124C220.253 42.5382 220.346 42.437 220.412 42.3086C220.48 42.1774 220.514 42.029 220.514 41.8636C220.514 41.6838 220.462 41.5441 220.356 41.4442C220.251 41.3415 220.102 41.2902 219.911 41.2902C219.763 41.2902 219.629 41.3273 219.509 41.4014C219.389 41.4727 219.295 41.574 219.226 41.7052C219.161 41.8336 219.128 41.9805 219.128 42.146C219.128 42.3257 219.181 42.4669 219.286 42.5696C219.392 42.6695 219.54 42.7194 219.731 42.7194Z" fill="#424242"/>
<path d="M223.847 40.1519H225.058C225.358 40.1519 225.617 40.2033 225.837 40.306C226.057 40.4058 226.224 40.5485 226.338 40.7339C226.455 40.9193 226.513 41.1375 226.513 41.3886C226.513 41.7395 226.435 42.0476 226.278 42.3129C226.124 42.5782 225.906 42.7836 225.623 42.9291C225.341 43.0745 225.016 43.1473 224.648 43.1473H223.248L223.847 40.1519ZM224.665 42.6766C224.927 42.6766 225.155 42.6224 225.349 42.514C225.543 42.4056 225.692 42.2572 225.794 42.069C225.9 41.8778 225.953 41.6624 225.953 41.4228C225.953 41.1718 225.871 40.9764 225.709 40.8366C225.546 40.694 225.309 40.6226 224.998 40.6226H224.309L223.899 42.6766H224.665Z" fill="#424242"/>
<path d="M229.676 40.8623L229.223 43.1473H228.713L228.76 42.9119C228.561 43.0888 228.313 43.1772 228.016 43.1772C227.828 43.1772 227.656 43.1373 227.502 43.0574C227.351 42.9775 227.231 42.862 227.143 42.7108C227.055 42.5568 227.01 42.3771 227.01 42.1717C227.01 41.9178 227.066 41.6895 227.177 41.487C227.291 41.2816 227.445 41.1219 227.639 41.0077C227.836 40.8936 228.056 40.8366 228.298 40.8366C228.663 40.8366 228.923 40.9578 229.077 41.2003L229.141 40.8623H229.676ZM228.153 42.7194C228.304 42.7194 228.438 42.6837 228.555 42.6124C228.675 42.5382 228.769 42.437 228.837 42.3086C228.906 42.1774 228.94 42.029 228.94 41.8636C228.94 41.6838 228.887 41.5441 228.782 41.4442C228.676 41.3415 228.528 41.2902 228.337 41.2902C228.186 41.2902 228.05 41.3273 227.93 41.4014C227.813 41.4727 227.721 41.574 227.652 41.7052C227.584 41.8336 227.549 41.9805 227.549 42.146C227.549 42.3257 227.602 42.4669 227.708 42.5696C227.813 42.6695 227.962 42.7194 228.153 42.7194Z" fill="#424242"/>
<path d="M230.932 42.3813C230.927 42.427 230.924 42.4598 230.924 42.4797C230.924 42.6509 231.014 42.7365 231.193 42.7365C231.305 42.7365 231.404 42.7065 231.493 42.6466L231.587 43.0403C231.441 43.1316 231.257 43.1772 231.035 43.1772C230.838 43.1772 230.68 43.123 230.56 43.0146C230.44 42.9062 230.38 42.7565 230.38 42.5653C230.38 42.5026 230.386 42.4427 230.397 42.3856L230.616 41.3073H230.243L230.329 40.8794H230.701L230.804 40.3573H231.339L231.232 40.8794H231.848L231.762 41.3073H231.146L230.932 42.3813Z" fill="#424242"/>
<path d="M234.862 40.8623L234.408 43.1473H233.899L233.946 42.9119C233.746 43.0888 233.498 43.1772 233.201 43.1772C233.013 43.1772 232.842 43.1373 232.688 43.0574C232.537 42.9775 232.417 42.862 232.328 42.7108C232.24 42.5568 232.196 42.3771 232.196 42.1717C232.196 41.9178 232.251 41.6895 232.363 41.487C232.477 41.2816 232.631 41.1219 232.825 41.0077C233.022 40.8936 233.241 40.8366 233.484 40.8366C233.849 40.8366 234.108 40.9578 234.262 41.2003L234.327 40.8623H234.862ZM233.338 42.7194C233.489 42.7194 233.623 42.6837 233.74 42.6124C233.86 42.5382 233.954 42.437 234.023 42.3086C234.091 42.1774 234.126 42.029 234.126 41.8636C234.126 41.6838 234.073 41.5441 233.967 41.4442C233.862 41.3415 233.713 41.2902 233.522 41.2902C233.371 41.2902 233.235 41.3273 233.116 41.4014C232.999 41.4727 232.906 41.574 232.838 41.7052C232.769 41.8336 232.735 41.9805 232.735 42.146C232.735 42.3257 232.788 42.4669 232.893 42.5696C232.999 42.6695 233.147 42.7194 233.338 42.7194Z" fill="#424242"/>
<path d="M237.835 43.1901C237.604 43.1901 237.383 43.1573 237.172 43.0917C236.961 43.026 236.795 42.9419 236.675 42.8392L236.911 42.4027C237.036 42.5026 237.185 42.5824 237.356 42.6424C237.53 42.6994 237.707 42.7279 237.886 42.7279C238.106 42.7279 238.28 42.6908 238.409 42.6167C238.54 42.5397 238.605 42.4355 238.605 42.3043C238.605 42.2301 238.578 42.1688 238.524 42.1203C238.473 42.069 238.407 42.0276 238.327 41.9962C238.25 41.9648 238.142 41.9292 238.002 41.8892C237.808 41.8322 237.651 41.778 237.531 41.7266C237.411 41.6724 237.309 41.5926 237.223 41.487C237.138 41.3815 237.095 41.2445 237.095 41.0762C237.095 40.8822 237.149 40.7125 237.257 40.567C237.369 40.4215 237.523 40.3088 237.72 40.229C237.916 40.1491 238.143 40.1091 238.4 40.1091C238.594 40.1091 238.778 40.132 238.952 40.1776C239.126 40.2204 239.276 40.2817 239.401 40.3616L239.183 40.8024C239.072 40.7282 238.946 40.6711 238.806 40.6312C238.667 40.5913 238.521 40.5713 238.37 40.5713C238.147 40.5713 237.971 40.6126 237.839 40.6954C237.711 40.7753 237.647 40.8822 237.647 41.0163C237.647 41.0933 237.674 41.1575 237.728 41.2089C237.782 41.2602 237.848 41.3016 237.925 41.333C238.002 41.3615 238.115 41.3986 238.263 41.4442C238.451 41.4984 238.605 41.5512 238.725 41.6025C238.845 41.6539 238.946 41.7295 239.029 41.8293C239.115 41.9292 239.157 42.059 239.157 42.2187C239.157 42.4156 239.102 42.5867 238.99 42.7322C238.882 42.8777 238.727 42.9904 238.524 43.0703C238.324 43.1501 238.095 43.1901 237.835 43.1901Z" fill="#424242"/>
<path d="M240.881 43.1772C240.659 43.1772 240.464 43.1359 240.295 43.0531C240.13 42.9676 240.001 42.8492 239.91 42.698C239.819 42.5468 239.773 42.3713 239.773 42.1717C239.773 41.9178 239.83 41.6895 239.944 41.487C240.061 41.2845 240.222 41.1261 240.428 41.012C240.636 40.8951 240.87 40.8366 241.13 40.8366C241.352 40.8366 241.548 40.878 241.716 40.9607C241.884 41.0434 242.014 41.1604 242.105 41.3116C242.197 41.4628 242.242 41.6382 242.242 41.8379C242.242 42.0918 242.184 42.32 242.067 42.5225C241.95 42.7251 241.787 42.8848 241.579 43.0018C241.374 43.1188 241.141 43.1772 240.881 43.1772ZM240.916 42.7194C241.067 42.7194 241.201 42.6837 241.318 42.6124C241.438 42.5382 241.532 42.437 241.6 42.3086C241.669 42.1774 241.703 42.029 241.703 41.8636C241.703 41.6838 241.65 41.5441 241.545 41.4442C241.439 41.3415 241.291 41.2902 241.1 41.2902C240.948 41.2902 240.813 41.3273 240.693 41.4014C240.576 41.4727 240.483 41.574 240.415 41.7052C240.347 41.8336 240.312 41.9805 240.312 42.146C240.312 42.3257 240.365 42.4669 240.471 42.5696C240.576 42.6695 240.725 42.7194 240.916 42.7194Z" fill="#424242"/>
<path d="M243.4 39.9722H243.935L243.301 43.1473H242.766L243.4 39.9722Z" fill="#424242"/>
<path d="M246.93 40.8623L246.472 43.1473H245.963L246.015 42.8948C245.809 43.0831 245.551 43.1772 245.24 43.1772C244.989 43.1772 244.788 43.1102 244.637 42.9761C244.488 42.8392 244.414 42.6481 244.414 42.4027C244.414 42.3114 244.424 42.2202 244.444 42.1289L244.697 40.8623H245.231L244.979 42.116C244.968 42.1731 244.962 42.2316 244.962 42.2915C244.962 42.4255 244.999 42.5282 245.073 42.5996C245.15 42.6709 245.264 42.7065 245.415 42.7065C245.609 42.7065 245.771 42.6523 245.899 42.5439C246.027 42.4327 246.113 42.2672 246.156 42.0476L246.395 40.8623H246.93Z" fill="#424242"/>
<path d="M248.183 42.3813C248.177 42.427 248.174 42.4598 248.174 42.4797C248.174 42.6509 248.264 42.7365 248.444 42.7365C248.555 42.7365 248.655 42.7065 248.743 42.6466L248.837 43.0403C248.692 43.1316 248.508 43.1772 248.285 43.1772C248.088 43.1772 247.93 43.123 247.81 43.0146C247.691 42.9062 247.631 42.7565 247.631 42.5653C247.631 42.5026 247.636 42.4427 247.648 42.3856L247.866 41.3073H247.494L247.579 40.8794H247.952L248.054 40.3573H248.589L248.482 40.8794H249.098L249.013 41.3073H248.397L248.183 42.3813Z" fill="#424242"/>
<path d="M249.953 40.8623H250.488L250.035 43.1473H249.5L249.953 40.8623ZM250.343 40.4857C250.249 40.4857 250.172 40.4572 250.112 40.4001C250.052 40.3402 250.022 40.2689 250.022 40.1862C250.022 40.0892 250.055 40.0079 250.12 39.9423C250.189 39.8766 250.277 39.8438 250.386 39.8438C250.48 39.8438 250.557 39.8724 250.617 39.9294C250.677 39.9836 250.707 40.0507 250.707 40.1305C250.707 40.2361 250.672 40.3217 250.604 40.3873C250.538 40.4529 250.451 40.4857 250.343 40.4857Z" fill="#424242"/>
<path d="M252.123 43.1772C251.901 43.1772 251.705 43.1359 251.537 43.0531C251.371 42.9676 251.243 42.8492 251.152 42.698C251.061 42.5468 251.015 42.3713 251.015 42.1717C251.015 41.9178 251.072 41.6895 251.186 41.487C251.303 41.2845 251.464 41.1261 251.67 41.012C251.878 40.8951 252.112 40.8366 252.371 40.8366C252.594 40.8366 252.789 40.878 252.958 40.9607C253.126 41.0434 253.256 41.1604 253.347 41.3116C253.438 41.4628 253.484 41.6382 253.484 41.8379C253.484 42.0918 253.425 42.32 253.308 42.5225C253.192 42.7251 253.029 42.8848 252.821 43.0018C252.615 43.1188 252.383 43.1772 252.123 43.1772ZM252.157 42.7194C252.309 42.7194 252.443 42.6837 252.56 42.6124C252.679 42.5382 252.774 42.437 252.842 42.3086C252.911 42.1774 252.945 42.029 252.945 41.8636C252.945 41.6838 252.892 41.5441 252.786 41.4442C252.681 41.3415 252.533 41.2902 252.341 41.2902C252.19 41.2902 252.055 41.3273 251.935 41.4014C251.818 41.4727 251.725 41.574 251.657 41.7052C251.588 41.8336 251.554 41.9805 251.554 42.146C251.554 42.3257 251.607 42.4669 251.712 42.5696C251.818 42.6695 251.966 42.7194 252.157 42.7194Z" fill="#424242"/>
<path d="M255.707 40.8366C255.964 40.8366 256.166 40.9036 256.315 41.0377C256.466 41.1718 256.541 41.3615 256.541 41.6068C256.541 41.6753 256.531 41.7666 256.511 41.8807L256.259 43.1473H255.724L255.972 41.8935C255.984 41.8365 255.989 41.778 255.989 41.7181C255.989 41.4414 255.837 41.303 255.532 41.303C255.335 41.303 255.172 41.3586 255.044 41.4699C254.915 41.5783 254.828 41.7423 254.783 41.962L254.543 43.1473H254.008L254.462 40.8623H254.971L254.92 41.1147C255.125 40.9293 255.388 40.8366 255.707 40.8366Z" fill="#424242"/>
<defs>
<clipPath id="clip0_2_28">
<rect width="92" height="49.5659" fill="white" transform="translate(172)"/>
</clipPath>
</defs>
</svg>
